<svg xmlns="http://www.w3.org/2000/svg" xmlns:xlink="http://www.w3.org/1999/xlink" viewBox="0 0 32 32" fill="#ffa534"  stroke-width="1">
  <path d="M16 3C8.832031 3 3 8.832031 3 16C3 23.167969 8.832031 29 16 29C23.167969 29 29 23.167969 29 16C29 8.832031 23.167969 3 16 3 Z M 14.875 5.0625C14.917969 5.058594 14.957031 5.066406 15 5.0625L15 11.09375C12.726563 11.5625 11 13.59375 11 16C11 18.75 13.25 21 16 21C16.746094 21 17.453125 20.828125 18.09375 20.53125L22.46875 24.90625C20.65625 26.226563 18.421875 27 16 27C9.914063 27 5 22.085938 5 16C5 10.292969 9.320313 5.625 14.875 5.0625 Z M 17 5.0625C22.285156 5.539063 26.460938 9.714844 26.9375 15L20.90625 15C20.503906 13.050781 18.949219 11.496094 17 11.09375 Z M 16 13C17.667969 13 19 14.332031 19 16C19 17.667969 17.667969 19 16 19C14.332031 19 13 17.667969 13 16C13 14.332031 14.332031 13 16 13 Z M 20.90625 17L26.9375 17C26.710938 19.535156 25.648438 21.820313 24 23.5625L19.71875 19.28125C20.289063 18.636719 20.726563 17.871094 20.90625 17Z" fill="#ffa534"/>
</svg>