<svg xmlns="http://www.w3.org/2000/svg" viewBox="0 0 32 32">
  <path d="M18.6875 2.96875L18.1875 3.625L13.9375 9.375L13.90625 9.40625C13.371094 10.152344 13.335938 11.113281 13.71875 11.90625L3.65625 23.03125L3 23.71875L7.6875 28.40625L8.375 29.0625L9.0625 28.4375L20.09375 18.28125C20.886719 18.664063 21.847656 18.625 22.59375 18.09375L22.625 18.0625L28.40625 13.8125L29.125 13.3125L28.71875 12.53125C28.71875 12.53125 27.375 9.9375 24.71875 7.28125C22.054688 4.617188 19.4375 3.34375 19.4375 3.34375 Z M 19.25 5.5625C20 5.992188 21.433594 6.871094 23.28125 8.71875C25.125 10.5625 26.054688 11.996094 26.5 12.75L21.4375 16.46875C21.238281 16.609375 20.984375 16.578125 20.8125 16.40625L15.59375 11.1875C15.421875 11.015625 15.390625 10.757813 15.53125 10.5625 Z M 15.0625 13.46875L18.5625 16.96875L8.4375 26.3125L5.78125 23.65625 Z M 14.28125 16.28125L11.28125 19.28125L12.71875 20.71875L15.71875 17.71875Z" fill="#87CB16" />
</svg>