<svg xmlns="http://www.w3.org/2000/svg" viewBox="0 0 32 32">
  <path d="M12 6L12 9L5.8125 9C5.394531 7.84375 4.292969 7 3 7C1.355469 7 0 8.355469 0 10C0 11.644531 1.355469 13 3 13C4.292969 13 5.394531 12.15625 5.8125 11L8.125 11C7.714844 11.390625 7.359375 11.816406 7.03125 12.28125C5.875 13.917969 5.195313 15.9375 5.03125 18L2 18L2 26L10 26L10 18L7.0625 18C7.226563 16.328125 7.773438 14.6875 8.65625 13.4375C9.515625 12.21875 10.621094 11.367188 12 11.09375L12 14L20 14L20 11.09375C21.378906 11.367188 22.484375 12.21875 23.34375 13.4375C24.226563 14.6875 24.773438 16.328125 24.9375 18L22 18L22 26L30 26L30 18L26.96875 18C26.804688 15.9375 26.125 13.917969 24.96875 12.28125C24.640625 11.816406 24.285156 11.390625 23.875 11L26.1875 11C26.605469 12.15625 27.707031 13 29 13C30.644531 13 32 11.644531 32 10C32 8.355469 30.644531 7 29 7C27.707031 7 26.605469 7.84375 26.1875 9L20 9L20 6 Z M 14 8L18 8L18 12L14 12 Z M 3 9C3.5625 9 4 9.4375 4 10C4 10.5625 3.5625 11 3 11C2.4375 11 2 10.5625 2 10C2 9.4375 2.4375 9 3 9 Z M 29 9C29.5625 9 30 9.4375 30 10C30 10.5625 29.5625 11 29 11C28.4375 11 28 10.5625 28 10C28 9.4375 28.4375 9 29 9 Z M 4 20L8 20L8 24L4 24 Z M 24 20L28 20L28 24L24 24Z" fill="#FB404B" />
</svg>